<svg width="367" height="85" viewBox="0 0 367 85" fill="none" xmlns="http://www.w3.org/2000/svg">
    <g filter="url(#filter0_d_97_5)">
        <path fill-rule="evenodd" clip-rule="evenodd" d="M9 5H34V30H9V5ZM4 0H9H34H39V5V30V35H34H9H4V30V5V0ZM54.2556 57.3H44.5716L54.1836 42.936V40.272H40.8996V42.936H50.4036L40.8276 57.3V60H54.2556V57.3ZM58.5064 44.772C57.6904 46.284 57.2824 48.048 57.2824 50.064C57.2824 52.056 57.6904 53.832 58.5064 55.392C59.3224 56.952 60.4384 58.164 61.8544 59.028C63.2704 59.892 64.8544 60.324 66.6064 60.324C68.3104 60.324 69.7984 59.952 71.0704 59.208C72.3664 58.44 73.3384 57.48 73.9864 56.328V60H77.2984V40.272H73.9864V43.872C73.3624 42.744 72.4144 41.808 71.1424 41.064C69.8704 40.32 68.3704 39.948 66.6424 39.948C64.8904 39.948 63.2944 40.368 61.8544 41.208C60.4384 42.048 59.3224 43.236 58.5064 44.772ZM73.0864 46.212C73.6864 47.316 73.9864 48.612 73.9864 50.1C73.9864 51.588 73.6864 52.896 73.0864 54.024C72.4864 55.128 71.6704 55.98 70.6384 56.58C69.6304 57.156 68.5144 57.444 67.2904 57.444C66.0664 57.444 64.9504 57.156 63.9424 56.58C62.9344 55.98 62.1304 55.128 61.5304 54.024C60.9304 52.896 60.6304 51.576 60.6304 50.064C60.6304 48.576 60.9304 47.28 61.5304 46.176C62.1304 45.072 62.9344 44.232 63.9424 43.656C64.9504 43.08 66.0664 42.792 67.2904 42.792C68.5144 42.792 69.6304 43.092 70.6384 43.692C71.6704 44.268 72.4864 45.108 73.0864 46.212ZM84.9905 32.928C83.5398 35.616 82.8145 38.752 82.8145 42.336C82.8145 45.8773 83.5398 49.0347 84.9905 51.808C86.4412 54.5813 88.4252 56.736 90.9425 58.272C93.5025 59.808 96.3398 60.576 99.4545 60.576C102.484 60.576 105.129 59.9147 107.391 58.592C109.652 57.2267 111.359 55.4987 112.51 53.408V60H118.398V12.64H112.51V31.2C111.273 29.152 109.481 27.5093 107.134 26.272C104.788 24.992 102.249 24.352 99.5185 24.352C96.3612 24.352 93.5025 25.0987 90.9425 26.592C88.4252 28.0853 86.4412 30.1973 84.9905 32.928ZM110.91 35.488C111.977 37.4507 112.51 39.7547 112.51 42.4C112.51 45.0453 111.977 47.3707 110.91 49.376C109.844 51.3387 108.393 52.8533 106.559 53.92C104.767 54.944 102.783 55.456 100.606 55.456C98.4305 55.456 96.4465 54.944 94.6545 53.92C92.8625 52.8533 91.4332 51.3387 90.3665 49.376C89.2998 47.3707 88.7665 45.024 88.7665 42.336C88.7665 39.6907 89.2998 37.3867 90.3665 35.424C91.4332 33.4613 92.8625 31.968 94.6545 30.944C96.4465 29.92 98.4305 29.408 100.606 29.408C102.783 29.408 104.767 29.9413 106.559 31.008C108.393 32.032 109.844 33.5253 110.91 35.488ZM137.329 76.512L158.449 24.928H152.432L141.553 53.344L130.545 24.928H124.08L138.225 59.616L131.312 76.512H137.329ZM169.487 59.232C171.62 60.128 174.031 60.576 176.719 60.576C179.236 60.576 181.455 60.1493 183.375 59.296C185.338 58.4 186.852 57.184 187.919 55.648C188.986 54.112 189.519 52.384 189.519 50.464C189.476 48.3307 188.879 46.6027 187.727 45.28C186.618 43.9573 185.274 42.976 183.695 42.336C182.116 41.6533 180.068 40.9707 177.551 40.288C175.546 39.7333 173.967 39.2427 172.815 38.816C171.706 38.3467 170.767 37.7493 169.999 37.024C169.274 36.256 168.911 35.296 168.911 34.144C168.911 32.6933 169.53 31.52 170.767 30.624C172.004 29.728 173.668 29.28 175.759 29.28C178.02 29.28 179.812 29.8347 181.135 30.944C182.5 32.0533 183.247 33.5253 183.375 35.36H189.199C189.028 31.9467 187.748 29.2587 185.359 27.296C182.97 25.3333 179.834 24.352 175.951 24.352C173.434 24.352 171.194 24.8 169.231 25.696C167.268 26.5493 165.754 27.7227 164.687 29.216C163.62 30.7093 163.087 32.352 163.087 34.144C163.087 36.4053 163.663 38.24 164.815 39.648C166.01 41.0133 167.418 42.0587 169.039 42.784C170.703 43.4667 172.836 44.1493 175.439 44.832C178.298 45.5573 180.41 46.304 181.775 47.072C183.14 47.7973 183.823 48.928 183.823 50.464C183.823 51.9573 183.183 53.1947 181.903 54.176C180.623 55.1573 178.874 55.648 176.655 55.648C174.266 55.648 172.324 55.0933 170.831 53.984C169.38 52.8747 168.57 51.4453 168.399 49.696H162.383C162.511 51.8293 163.194 53.728 164.431 55.392C165.668 57.0133 167.354 58.2933 169.487 59.232ZM219.309 55.2H202.092L219.18 29.664V24.928H195.564V29.664H212.46L195.436 55.2V60H219.309V55.2ZM232.689 44.512L246.449 60H254.385L237.809 42.4L254.322 24.928H246.193L232.689 40.48V12.64H226.865V60H232.689V44.512ZM291.611 44.64C291.739 43.4027 291.803 42.2293 291.803 41.12C291.803 37.92 291.099 35.0613 289.691 32.544C288.326 29.984 286.363 27.9787 283.803 26.528C281.243 25.0773 278.299 24.352 274.971 24.352C271.558 24.352 268.528 25.0987 265.883 26.592C263.28 28.0427 261.254 30.1333 259.803 32.864C258.352 35.5947 257.627 38.7733 257.627 42.4C257.627 46.0267 258.374 49.2267 259.867 52C261.36 54.7307 263.408 56.8427 266.011 58.336C268.656 59.8293 271.643 60.576 274.971 60.576C279.152 60.576 282.651 59.5307 285.467 57.44C288.283 55.3067 290.16 52.5547 291.099 49.184H284.827C284.144 51.1467 282.95 52.7253 281.243 53.92C279.579 55.072 277.488 55.648 274.971 55.648C271.899 55.648 269.275 54.688 267.099 52.768C264.966 50.8053 263.792 48.096 263.579 44.64H291.611ZM284.315 34.208C285.296 35.7867 285.787 37.6853 285.787 39.904H263.643C263.942 36.576 265.115 33.9733 267.163 32.096C269.254 30.2187 271.771 29.28 274.715 29.28C276.763 29.28 278.619 29.7067 280.283 30.56C281.99 31.3707 283.334 32.5867 284.315 34.208ZM298.53 59.232C299.298 60 300.237 60.384 301.346 60.384C302.413 60.384 303.309 60 304.034 59.232C304.802 58.464 305.186 57.5253 305.186 56.416C305.186 55.3067 304.802 54.368 304.034 53.6C303.309 52.832 302.413 52.448 301.346 52.448C300.237 52.448 299.298 52.832 298.53 53.6C297.763 54.368 297.379 55.3067 297.379 56.416C297.379 57.5253 297.763 58.464 298.53 59.232ZM323.872 26.4C321.611 27.7227 319.904 29.3867 318.752 31.392V24.928H312.928V76.64H318.752V53.536C319.947 55.5413 321.675 57.2267 323.936 58.592C326.24 59.9147 328.885 60.576 331.872 60.576C334.987 60.576 337.803 59.808 340.32 58.272C342.88 56.736 344.885 54.5813 346.336 51.808C347.787 49.0347 348.512 45.8773 348.512 42.336C348.512 38.752 347.787 35.616 346.336 32.928C344.885 30.1973 342.88 28.0853 340.32 26.592C337.803 25.0987 334.987 24.352 331.872 24.352C328.843 24.352 326.176 25.0347 323.872 26.4ZM340.96 35.424C342.027 37.3867 342.56 39.6907 342.56 42.336C342.56 45.024 342.027 47.3707 340.96 49.376C339.893 51.3387 338.443 52.8533 336.608 53.92C334.816 54.944 332.832 55.456 330.656 55.456C328.523 55.456 326.539 54.944 324.704 53.92C322.912 52.8533 321.461 51.3387 320.352 49.376C319.285 47.3707 318.752 45.0453 318.752 42.4C318.752 39.7973 319.285 37.5147 320.352 35.552C321.461 33.5467 322.912 32.032 324.704 31.008C326.539 29.9413 328.523 29.408 330.656 29.408C332.832 29.408 334.816 29.92 336.608 30.944C338.443 31.968 339.893 33.4613 340.96 35.424ZM362.002 60V12.64H356.178V60H362.002Z" fill="url(#paint0_linear_97_5)"/>
    </g>
    <defs>
        <filter id="filter0_d_97_5" x="0" y="0" width="366.002" height="84.64" filterUnits="userSpaceOnUse" color-interpolation-filters="sRGB">
            <feFlood flood-opacity="0" result="BackgroundImageFix"/>
            <feColorMatrix in="SourceAlpha" type="matrix" values="0 0 0 0 0 0 0 0 0 0 0 0 0 0 0 0 0 0 127 0" result="hardAlpha"/>
            <feOffset dy="4"/>
            <feGaussianBlur stdDeviation="2"/>
            <feComposite in2="hardAlpha" operator="out"/>
            <feColorMatrix type="matrix" values="0 0 0 0 0 0 0 0 0 0 0 0 0 0 0 0 0 0 0.25 0"/>
            <feBlend mode="normal" in2="BackgroundImageFix" result="effect1_dropShadow_97_5"/>
            <feBlend mode="normal" in="SourceGraphic" in2="effect1_dropShadow_97_5" result="shape"/>
        </filter>
        <linearGradient id="paint0_linear_97_5" x1="183.001" y1="0" x2="183.001" y2="76.64" gradientUnits="userSpaceOnUse">
            <stop stop-color="#15D33F"/>
            <stop offset="1" stop-color="#ED8627"/>
        </linearGradient>
    </defs>
</svg>
